<?xml version="1.0" encoding="UTF-8" standalone="no"?>
<!DOCTYPE svg PUBLIC "-//W3C//DTD SVG 1.1//EN" "http://www.w3.org/Graphics/SVG/1.1/DTD/svg11.dtd">
<!-- Generated by graphviz version 2.40.1 (20161225.0304)
 -->
<!-- Title: G Pages: 1 -->
<svg width="1868pt" height="281pt" viewBox="0.00 0.00 1868.32 281.22" xmlns="http://www.w3.org/2000/svg" xmlns:xlink="http://www.w3.org/1999/xlink">
<g id="graph0" class="graph" transform="scale(1 1) rotate(0) translate(4 277.2156)">
<title>G</title>
<polygon fill="#ffffff" stroke="transparent" points="-4,4 -4,-277.2156 1864.3192,-277.2156 1864.3192,4 -4,4"/>
<!-- start -->
<g id="node1" class="node">
<title>start</title>
<polygon fill="none" stroke="#000000" points="39.1185,-73.4156 -.1188,-55.4156 39.1185,-37.4156 78.3558,-55.4156 39.1185,-73.4156"/>
<polyline fill="none" stroke="#000000" points="10.7882,-60.4192 10.7882,-50.4121 "/>
<polyline fill="none" stroke="#000000" points="28.2114,-42.4192 50.0255,-42.4192 "/>
<polyline fill="none" stroke="#000000" points="67.4487,-50.4121 67.4487,-60.4192 "/>
<polyline fill="none" stroke="#000000" points="50.0255,-68.4121 28.2114,-68.4121 "/>
<text text-anchor="middle" x="39.1185" y="-51.2156" font-family="Times,serif" font-size="14.00" fill="#000000">start</text>
</g>
<!-- start of the day\n(outputs the state of the player)\nhour 0 -->
<g id="node2" class="node">
<title>start of the day\n(outputs the state of the player)\nhour 0</title>
<ellipse fill="none" stroke="#000000" cx="249.9785" cy="-55.4156" rx="134.9836" ry="41.0911"/>
<text text-anchor="middle" x="249.9785" y="-68.0156" font-family="Times,serif" font-size="14.00" fill="#000000">start of the day</text>
<text text-anchor="middle" x="249.9785" y="-51.2156" font-family="Times,serif" font-size="14.00" fill="#000000">(outputs the state of the player)</text>
<text text-anchor="middle" x="249.9785" y="-34.4156" font-family="Times,serif" font-size="14.00" fill="#000000">hour 0</text>
</g>
<!-- start&#45;&gt;start of the day\n(outputs the state of the player)\nhour 0 -->
<g id="edge1" class="edge">
<title>start-&gt;start of the day\n(outputs the state of the player)\nhour 0</title>
<path fill="none" stroke="#000000" d="M78.2855,-55.4156C86.4178,-55.4156 95.4346,-55.4156 104.9554,-55.4156"/>
<polygon fill="#000000" stroke="#000000" points="105.0437,-58.9157 115.0436,-55.4156 105.0436,-51.9157 105.0437,-58.9157"/>
</g>
<!-- sleep\nhours 1 &#45; 8 -->
<g id="node3" class="node">
<title>sleep\nhours 1 - 8</title>
<ellipse fill="none" stroke="#000000" cx="475.6482" cy="-138.4156" rx="53.8562" ry="29.3315"/>
<text text-anchor="middle" x="475.6482" y="-142.6156" font-family="Times,serif" font-size="14.00" fill="#000000">sleep</text>
<text text-anchor="middle" x="475.6482" y="-125.8156" font-family="Times,serif" font-size="14.00" fill="#000000">hours 1 - 8</text>
</g>
<!-- start of the day\n(outputs the state of the player)\nhour 0&#45;&gt;sleep\nhours 1 &#45; 8 -->
<g id="edge2" class="edge">
<title>start of the day\n(outputs the state of the player)\nhour 0-&gt;sleep\nhours 1 - 8</title>
<path fill="none" stroke="#000000" d="M336.2605,-87.1497C364.8368,-97.6598 395.822,-109.056 421.3055,-118.4287"/>
<polygon fill="#000000" stroke="#000000" points="420.193,-121.7487 430.7865,-121.9158 422.6093,-115.1789 420.193,-121.7487"/>
</g>
<!-- oversleep\nhours 9 | 10 | 11 -->
<g id="node4" class="node">
<title>oversleep\nhours 9 | 10 | 11</title>
<ellipse fill="none" stroke="#000000" cx="707.9846" cy="-165.4156" rx="74.2788" ry="29.3315"/>
<text text-anchor="middle" x="707.9846" y="-169.6156" font-family="Times,serif" font-size="14.00" fill="#000000">oversleep</text>
<text text-anchor="middle" x="707.9846" y="-152.8156" font-family="Times,serif" font-size="14.00" fill="#000000">hours 9 | 10 | 11</text>
</g>
<!-- sleep\nhours 1 &#45; 8&#45;&gt;oversleep\nhours 9 | 10 | 11 -->
<g id="edge3" class="edge">
<title>sleep\nhours 1 - 8-&gt;oversleep\nhours 9 | 10 | 11</title>
<path fill="none" stroke="#000000" d="M528.6597,-144.5761C557.422,-147.9186 593.6056,-152.1236 625.9245,-155.8794"/>
<polygon fill="#000000" stroke="#000000" points="625.9303,-159.4035 636.2675,-157.0813 626.7384,-152.4503 625.9303,-159.4035"/>
<text text-anchor="middle" x="581.5858" y="-157.6156" font-family="Times,serif" font-size="14.00" fill="#000000">chance 20%</text>
</g>
<!-- eat\nhours 9 | 10 | 11 | 12 or 15 or 20 -->
<g id="node5" class="node">
<title>eat\nhours 9 | 10 | 11 | 12 or 15 or 20</title>
<ellipse fill="none" stroke="#000000" cx="956.7805" cy="-139.4156" rx="137.3132" ry="29.3315"/>
<text text-anchor="middle" x="956.7805" y="-143.6156" font-family="Times,serif" font-size="14.00" fill="#000000">eat</text>
<text text-anchor="middle" x="956.7805" y="-126.8156" font-family="Times,serif" font-size="14.00" fill="#000000">hours 9 | 10 | 11 | 12 or 15 or 20</text>
</g>
<!-- sleep\nhours 1 &#45; 8&#45;&gt;eat\nhours 9 | 10 | 11 | 12 or 15 or 20 -->
<g id="edge4" class="edge">
<title>sleep\nhours 1 - 8-&gt;eat\nhours 9 | 10 | 11 | 12 or 15 or 20</title>
<path fill="none" stroke="#000000" d="M528.9705,-133.7755C559.5621,-131.3457 598.7069,-128.629 633.5953,-127.4156 699.6792,-125.1173 716.2891,-125.1449 782.3739,-127.4156 793.6349,-127.8026 805.2977,-128.3297 817.0088,-128.9481"/>
<polygon fill="#000000" stroke="#000000" points="817.127,-132.4598 827.304,-129.5139 817.5112,-125.4703 817.127,-132.4598"/>
</g>
<!-- bulking\nhours 9 | 10 | 11 | 12 or 15 or 20 -->
<g id="node6" class="node">
<title>bulking\nhours 9 | 10 | 11 | 12 or 15 or 20</title>
<ellipse fill="none" stroke="#000000" cx="1722.9127" cy="-188.4156" rx="137.3132" ry="29.3315"/>
<text text-anchor="middle" x="1722.9127" y="-192.6156" font-family="Times,serif" font-size="14.00" fill="#000000">bulking</text>
<text text-anchor="middle" x="1722.9127" y="-175.8156" font-family="Times,serif" font-size="14.00" fill="#000000">hours 9 | 10 | 11 | 12 or 15 or 20</text>
</g>
<!-- sleep\nhours 1 &#45; 8&#45;&gt;bulking\nhours 9 | 10 | 11 | 12 or 15 or 20 -->
<g id="edge7" class="edge">
<title>sleep\nhours 1 - 8-&gt;bulking\nhours 9 | 10 | 11 | 12 or 15 or 20</title>
<path fill="none" stroke="#000000" d="M503.7354,-163.7296C545.2248,-198.4019 626.7782,-256.4156 707.9846,-256.4156 707.9846,-256.4156 707.9846,-256.4156 1339.8466,-256.4156 1439.88,-256.4156 1552.3769,-233.6572 1629.4371,-214.4726"/>
<polygon fill="#000000" stroke="#000000" points="1630.7561,-217.7498 1639.598,-211.9126 1629.0459,-210.9619 1630.7561,-217.7498"/>
<text text-anchor="middle" x="956.7805" y="-260.6156" font-family="Times,serif" font-size="14.00" fill="#000000">chance 30%</text>
</g>
<!-- oversleep\nhours 9 | 10 | 11&#45;&gt;oversleep\nhours 9 | 10 | 11 -->
<g id="edge5" class="edge">
<title>oversleep\nhours 9 | 10 | 11-&gt;oversleep\nhours 9 | 10 | 11</title>
<path fill="none" stroke="#000000" d="M690.7515,-194.1187C690.3809,-204.427 696.1252,-212.8313 707.9846,-212.8313 715.582,-212.8313 720.6698,-209.3822 723.2481,-204.193"/>
<polygon fill="#000000" stroke="#000000" points="726.7338,-204.6045 725.2178,-194.1187 719.8639,-203.2613 726.7338,-204.6045"/>
<text text-anchor="middle" x="707.9846" y="-217.0313" font-family="Times,serif" font-size="14.00" fill="#000000">chance 50%</text>
</g>
<!-- oversleep\nhours 9 | 10 | 11&#45;&gt;eat\nhours 9 | 10 | 11 | 12 or 15 or 20 -->
<g id="edge6" class="edge">
<title>oversleep\nhours 9 | 10 | 11-&gt;eat\nhours 9 | 10 | 11 | 12 or 15 or 20</title>
<path fill="none" stroke="#000000" d="M779.9467,-157.8954C793.4728,-156.4818 808.0114,-154.9625 822.7312,-153.4242"/>
<polygon fill="#000000" stroke="#000000" points="823.3586,-156.8778 832.9406,-152.3573 822.631,-149.9157 823.3586,-156.8778"/>
</g>
<!-- oversleep\nhours 9 | 10 | 11&#45;&gt;bulking\nhours 9 | 10 | 11 | 12 or 15 or 20 -->
<g id="edge8" class="edge">
<title>oversleep\nhours 9 | 10 | 11-&gt;bulking\nhours 9 | 10 | 11 | 12 or 15 or 20</title>
<path fill="none" stroke="#000000" d="M779.2097,-174.0651C792.5387,-175.4063 806.3671,-176.6115 819.3739,-177.4156 1121.1099,-196.0699 1197.185,-185.9711 1499.4871,-188.4156 1523.9705,-188.6136 1549.9635,-188.714 1575.2332,-188.7528"/>
<polygon fill="#000000" stroke="#000000" points="1575.2485,-192.2527 1585.2529,-188.7651 1575.2572,-185.2527 1575.2485,-192.2527"/>
<text text-anchor="middle" x="1146.1965" y="-192.6156" font-family="Times,serif" font-size="14.00" fill="#000000">chance 30%</text>
</g>
<!-- work\nhours till 14 or 16 &#45; 19 or 21 &#45; 22 -->
<g id="node7" class="node">
<title>work\nhours till 14 or 16 - 19 or 21 - 22</title>
<ellipse fill="none" stroke="#000000" cx="1339.8466" cy="-139.4156" rx="141.7813" ry="29.3315"/>
<text text-anchor="middle" x="1339.8466" y="-143.6156" font-family="Times,serif" font-size="14.00" fill="#000000">work</text>
<text text-anchor="middle" x="1339.8466" y="-126.8156" font-family="Times,serif" font-size="14.00" fill="#000000">hours till 14 or 16 - 19 or 21 - 22</text>
</g>
<!-- eat\nhours 9 | 10 | 11 | 12 or 15 or 20&#45;&gt;work\nhours till 14 or 16 &#45; 19 or 21 &#45; 22 -->
<g id="edge9" class="edge">
<title>eat\nhours 9 | 10 | 11 | 12 or 15 or 20-&gt;work\nhours till 14 or 16 - 19 or 21 - 22</title>
<path fill="none" stroke="#000000" d="M1091.0275,-132.9415C1123.4717,-132.6202 1158.3313,-132.5796 1191.3859,-132.8197"/>
<polygon fill="#000000" stroke="#000000" points="1191.5532,-136.3211 1201.5816,-132.9032 1191.6106,-129.3213 1191.5532,-136.3211"/>
</g>
<!-- bulking\nhours 9 | 10 | 11 | 12 or 15 or 20&#45;&gt;work\nhours till 14 or 16 &#45; 19 or 21 &#45; 22 -->
<g id="edge10" class="edge">
<title>bulking\nhours 9 | 10 | 11 | 12 or 15 or 20-&gt;work\nhours till 14 or 16 - 19 or 21 - 22</title>
<path fill="none" stroke="#000000" d="M1622.4091,-168.1902C1604.1875,-164.9431 1585.3172,-161.854 1567.5061,-159.4156 1540.6358,-155.7371 1511.8836,-152.597 1484.1704,-149.9702"/>
<polygon fill="#000000" stroke="#000000" points="1484.2938,-146.4666 1474.0127,-149.0256 1483.6456,-153.4366 1484.2938,-146.4666"/>
</g>
<!-- work\nhours till 14 or 16 &#45; 19 or 21 &#45; 22&#45;&gt;eat\nhours 9 | 10 | 11 | 12 or 15 or 20 -->
<g id="edge11" class="edge">
<title>work\nhours till 14 or 16 - 19 or 21 - 22-&gt;eat\nhours 9 | 10 | 11 | 12 or 15 or 20</title>
<path fill="none" stroke="#000000" d="M1201.5816,-145.9281C1168.9456,-146.2263 1134.0681,-146.2437 1101.1693,-145.9805"/>
<polygon fill="#000000" stroke="#000000" points="1101.0584,-142.4795 1091.0275,-145.8898 1100.9957,-149.4792 1101.0584,-142.4795"/>
</g>
<!-- work\nhours till 14 or 16 &#45; 19 or 21 &#45; 22&#45;&gt;bulking\nhours 9 | 10 | 11 | 12 or 15 or 20 -->
<g id="edge12" class="edge">
<title>work\nhours till 14 or 16 - 19 or 21 - 22-&gt;bulking\nhours 9 | 10 | 11 | 12 or 15 or 20</title>
<path fill="none" stroke="#000000" d="M1460.5253,-154.8523C1503.2513,-160.3176 1551.4531,-166.4833 1594.7771,-172.0251"/>
<polygon fill="#000000" stroke="#000000" points="1594.4443,-175.511 1604.8076,-173.3082 1595.3325,-168.5676 1594.4443,-175.511"/>
<text text-anchor="middle" x="1533.4966" y="-171.6156" font-family="Times,serif" font-size="14.00" fill="#000000">chance 30%</text>
</g>
<!-- rest\nhour22 -->
<g id="node8" class="node">
<title>rest\nhour22</title>
<ellipse fill="none" stroke="#000000" cx="1722.9127" cy="-109.4156" rx="39.2165" ry="29.3315"/>
<text text-anchor="middle" x="1722.9127" y="-113.6156" font-family="Times,serif" font-size="14.00" fill="#000000">rest</text>
<text text-anchor="middle" x="1722.9127" y="-96.8156" font-family="Times,serif" font-size="14.00" fill="#000000">hour22</text>
</g>
<!-- work\nhours till 14 or 16 &#45; 19 or 21 &#45; 22&#45;&gt;rest\nhour22 -->
<g id="edge13" class="edge">
<title>work\nhours till 14 or 16 - 19 or 21 - 22-&gt;rest\nhour22</title>
<path fill="none" stroke="#000000" d="M1472.481,-129.0283C1542.052,-123.5798 1623.1082,-117.2319 1673.7236,-113.2679"/>
<polygon fill="#000000" stroke="#000000" points="1674.0414,-116.7538 1683.7376,-112.4837 1673.4948,-109.7752 1674.0414,-116.7538"/>
</g>
<!-- mental breakdown\nhour22 -->
<g id="node9" class="node">
<title>mental breakdown\nhour22</title>
<ellipse fill="none" stroke="#000000" cx="1722.9127" cy="-29.4156" rx="84.9196" ry="29.3315"/>
<text text-anchor="middle" x="1722.9127" y="-33.6156" font-family="Times,serif" font-size="14.00" fill="#000000">mental breakdown</text>
<text text-anchor="middle" x="1722.9127" y="-16.8156" font-family="Times,serif" font-size="14.00" fill="#000000">hour22</text>
</g>
<!-- work\nhours till 14 or 16 &#45; 19 or 21 &#45; 22&#45;&gt;mental breakdown\nhour22 -->
<g id="edge14" class="edge">
<title>work\nhours till 14 or 16 - 19 or 21 - 22-&gt;mental breakdown\nhour22</title>
<path fill="none" stroke="#000000" d="M1422.9662,-115.5473C1489.8376,-96.3447 1582.9984,-69.593 1647.6811,-51.0189"/>
<polygon fill="#000000" stroke="#000000" points="1648.7644,-54.3494 1657.4099,-48.2252 1646.8323,-47.6213 1648.7644,-54.3494"/>
<text text-anchor="middle" x="1533.4966" y="-95.6156" font-family="Times,serif" font-size="14.00" fill="#000000">chance 20%</text>
</g>
<!-- rest\nhour22&#45;&gt;start of the day\n(outputs the state of the player)\nhour 0 -->
<g id="edge15" class="edge">
<title>rest\nhour22-&gt;start of the day\n(outputs the state of the player)\nhour 0</title>
<path fill="none" stroke="#000000" d="M1686.2171,-98.5738C1654.9492,-89.788 1608.6695,-77.8471 1567.5061,-71.4156 1467.2904,-55.7577 1441.2782,-55.4156 1339.8466,-55.4156 475.6482,-55.4156 475.6482,-55.4156 475.6482,-55.4156 449.5928,-55.4156 421.8452,-55.4156 395.043,-55.4156"/>
<polygon fill="#000000" stroke="#000000" points="394.8227,-51.9157 384.8226,-55.4156 394.8226,-58.9157 394.8227,-51.9157"/>
</g>
<!-- mental breakdown\nhour22&#45;&gt;start of the day\n(outputs the state of the player)\nhour 0 -->
<g id="edge16" class="edge">
<title>mental breakdown\nhour22-&gt;start of the day\n(outputs the state of the player)\nhour 0</title>
<path fill="none" stroke="#000000" d="M1638.8666,-25.2691C1561.271,-21.8006 1442.8128,-17.4156 1339.8466,-17.4156 475.6482,-17.4156 475.6482,-17.4156 475.6482,-17.4156 439.9394,-17.4156 401.488,-22.0996 366.6213,-28.1785"/>
<polygon fill="#000000" stroke="#000000" points="365.629,-24.8007 356.4068,-30.0163 366.8686,-31.6901 365.629,-24.8007"/>
</g>
</g>
</svg>